<svg xmlns="http://www.w3.org/2000/svg" viewBox="0 0 1536 750" preserveAspectRatio="xMidYMid" width="1536" height="750" xmlns:xlink="http://www.w3.org/1999/xlink" style="shape-rendering:auto;display:block;background-position-x:0%;background-position-y:0%;background-size:auto;background-origin:padding-box;background-clip:border-box;background:scroll rgb(26, 27, 32) none  repeat;width:1536px;height:750px;;animation:none"><g><path stroke-width="2" stroke-opacity="0" stroke="rgb(98, 82, 197)" fill="none" d="M 0 416.5 C 256 416.5 512 529.5 768 529.5 C 1024 529.5 1280 416.5 1536 416.5 C 1792 416.5 2048 529.5 2304 529.5 C 2560 529.5 2816 416.5 3072 416.5" transform="matrix(1,0,0,1,0,0)" style="fill:none;stroke:rgb(98, 82, 197);transform:matrix(1, 0, 0, 1, 0, 0);;animation:none"></path>
<path stroke-width="2" stroke-opacity="0" stroke="rgb(98, 82, 197)" fill="none" d="M 0 416.517 C 256 416.517 512 529.483 768 529.483 C 1024 529.483 1280 416.517 1536 416.517 C 1792 416.517 2048 529.483 2304 529.483 C 2560 529.483 2816 416.517 3072 416.517" transform="matrix(1,0,0,1,-8.191871643066406,0)" style="fill:none;stroke:rgb(98, 82, 197);transform:matrix(1, 0, 0, 1, -8.19187, 0);;animation:none"></path>
<path stroke-width="2" stroke-opacity="0" stroke="rgb(98, 82, 197)" fill="none" d="M 0 416.57 C 256 416.57 512 529.43 768 529.43 C 1024 529.43 1280 416.57 1536 416.57 C 1792 416.57 2048 529.43 2304 529.43 C 2560 529.43 2816 416.57 3072 416.57" transform="matrix(1,0,0,1,-16.383743286132812,0)" style="fill:none;stroke:rgb(98, 82, 197);transform:matrix(1, 0, 0, 1, -16.3837, 0);;animation:none"></path>
<path stroke-width="2" stroke-opacity="0" stroke="rgb(98, 82, 197)" fill="none" d="M 0 416.659 C 256 416.659 512 529.341 768 529.341 C 1024 529.341 1280 416.659 1536 416.659 C 1792 416.659 2048 529.341 2304 529.341 C 2560 529.341 2816 416.659 3072 416.659" transform="matrix(1,0,0,1,-24.576000213623047,0)" style="fill:none;stroke:rgb(98, 82, 197);transform:matrix(1, 0, 0, 1, -24.576, 0);;animation:none"></path>
<path stroke-width="2" stroke-opacity="0" stroke="rgb(97, 83, 197)" fill="none" d="M 0 416.785 C 256 416.785 512 529.215 768 529.215 C 1024 529.215 1280 416.785 1536 416.785 C 1792 416.785 2048 529.215 2304 529.215 C 2560 529.215 2816 416.785 3072 416.785" transform="matrix(1,0,0,1,-32.76787185668945,0)" style="fill:none;stroke:rgb(97, 83, 197);transform:matrix(1, 0, 0, 1, -32.7679, 0);;animation:none"></path>
<path stroke-width="2" stroke-opacity="0" stroke="rgb(97, 83, 197)" fill="none" d="M 0 416.95 C 256 416.95 512 529.05 768 529.05 C 1024 529.05 1280 416.95 1536 416.95 C 1792 416.95 2048 529.05 2304 529.05 C 2560 529.05 2816 416.95 3072 416.95" transform="matrix(1,0,0,1,-40.95974349975586,0)" style="fill:none;stroke:rgb(97, 83, 197);transform:matrix(1, 0, 0, 1, -40.9597, 0);;animation:none"></path>
<path stroke-width="2" stroke-opacity="0" stroke="rgb(97, 84, 198)" fill="none" d="M 0 417.154 C 256 417.154 512 528.846 768 528.846 C 1024 528.846 1280 417.154 1536 417.154 C 1792 417.154 2048 528.846 2304 528.846 C 2560 528.846 2816 417.154 3072 417.154" transform="matrix(1,0,0,1,-49.152000427246094,0)" style="fill:none;stroke:rgb(97, 84, 198);transform:matrix(1, 0, 0, 1, -49.152, 0);;animation:none"></path>
<path stroke-width="2" stroke-opacity="0" stroke="rgb(96, 85, 198)" fill="none" d="M 0 417.399 C 256 417.399 512 528.601 768 528.601 C 1024 528.601 1280 417.399 1536 417.399 C 1792 417.399 2048 528.601 2304 528.601 C 2560 528.601 2816 417.399 3072 417.399" transform="matrix(1,0,0,1,-57.3438720703125,0)" style="fill:none;stroke:rgb(96, 85, 198);transform:matrix(1, 0, 0, 1, -57.3439, 0);;animation:none"></path>
<path stroke-width="2" stroke-opacity="0" stroke="rgb(95, 86, 198)" fill="none" d="M 0 417.686 C 256 417.686 512 528.314 768 528.314 C 1024 528.314 1280 417.687 1536 417.687 C 1792 417.687 2048 528.314 2304 528.314 C 2560 528.314 2816 417.687 3072 417.687" transform="matrix(1,0,0,1,-65.5357437133789,0)" style="fill:none;stroke:rgb(95, 86, 198);transform:matrix(1, 0, 0, 1, -65.5357, 0);;animation:none"></path>
<path stroke-width="2" stroke-opacity="0" stroke="rgb(95, 87, 198)" fill="none" d="M 0 418.017 C 256 418.017 512 527.983 768 527.983 C 1024 527.983 1280 418.017 1536 418.017 C 1792 418.017 2048 527.983 2304 527.983 C 2560 527.983 2816 418.017 3072 418.017" transform="matrix(1,0,0,1,-73.72799682617188,0)" style="fill:none;stroke:rgb(95, 87, 198);transform:matrix(1, 0, 0, 1, -73.728, 0);;animation:none"></path>
<path stroke-width="2" stroke-opacity="0" stroke="rgb(94, 88, 199)" fill="none" d="M 0 418.392 C 256 418.392 512 527.608 768 527.608 C 1024 527.608 1280 418.392 1536 418.392 C 1792 418.392 2048 527.608 2304 527.608 C 2560 527.608 2816 418.392 3072 418.392" transform="matrix(1,0,0,1,-81.91986846923828,0)" style="fill:none;stroke:rgb(94, 88, 199);transform:matrix(1, 0, 0, 1, -81.9199, 0);;animation:none"></path>
<path stroke-width="2" stroke-opacity="0" stroke="rgb(93, 89, 199)" fill="none" d="M 0 418.813 C 256 418.813 512 527.187 768 527.187 C 1024 527.187 1280 418.813 1536 418.813 C 1792 418.813 2048 527.187 2304 527.187 C 2560 527.187 2816 418.813 3072 418.813" transform="matrix(1,0,0,1,-90.11174774169922,0)" style="fill:none;stroke:rgb(93, 89, 199);transform:matrix(1, 0, 0, 1, -90.1118, 0);;animation:none"></path>
<path stroke-width="2" stroke-opacity="0" stroke="rgb(92, 91, 200)" fill="none" d="M 0 419.281 C 256 419.281 512 526.719 768 526.719 C 1024 526.719 1280 419.281 1536 419.281 C 1792 419.281 2048 526.719 2304 526.719 C 2560 526.719 2816 419.281 3072 419.281" transform="matrix(1,0,0,1,-98.30400085449219,0)" style="fill:none;stroke:rgb(92, 91, 200);transform:matrix(1, 0, 0, 1, -98.304, 0);;animation:none"></path>
<path stroke-width="2" stroke-opacity="0" stroke="rgb(91, 92, 200)" fill="none" d="M 0 419.798 C 256 419.798 512 526.202 768 526.202 C 1024 526.202 1280 419.798 1536 419.798 C 1792 419.798 2048 526.202 2304 526.202 C 2560 526.202 2816 419.798 3072 419.798" transform="matrix(1,0,0,1,-106.49586486816406,0)" style="fill:none;stroke:rgb(91, 92, 200);transform:matrix(1, 0, 0, 1, -106.496, 0);;animation:none"></path>
<path stroke-width="2" stroke-opacity="0" stroke="rgb(89, 94, 201)" fill="none" d="M 0 420.365 C 256 420.365 512 525.635 768 525.635 C 1024 525.635 1280 420.365 1536 420.365 C 1792 420.365 2048 525.635 2304 525.635 C 2560 525.635 2816 420.365 3072 420.365" transform="matrix(1,0,0,1,-114.687744140625,0)" style="fill:none;stroke:rgb(89, 94, 201);transform:matrix(1, 0, 0, 1, -114.688, 0);;animation:none"></path>
<path stroke-width="2" stroke-opacity="0" stroke="rgb(88, 96, 202)" fill="none" d="M 0 420.983 C 256 420.983 512 525.017 768 525.017 C 1024 525.017 1280 420.983 1536 420.983 C 1792 420.983 2048 525.017 2304 525.017 C 2560 525.017 2816 420.983 3072 420.983" transform="matrix(1,0,0,1,-122.87999725341797,0)" style="fill:none;stroke:rgb(88, 96, 202);transform:matrix(1, 0, 0, 1, -122.88, 0);;animation:none"></path>
<path stroke-width="2" stroke-opacity="0" stroke="rgb(86, 99, 202)" fill="none" d="M 0 421.655 C 256 421.655 512 524.345 768 524.345 C 1024 524.345 1280 421.655 1536 421.655 C 1792 421.655 2048 524.345 2304 524.345 C 2560 524.345 2816 421.655 3072 421.655" transform="matrix(1,0,0,1,-131.07186889648438,0)" style="fill:none;stroke:rgb(86, 99, 202);transform:matrix(1, 0, 0, 1, -131.072, 0);;animation:none"></path>
<path stroke-width="2" stroke-opacity="0" stroke="rgb(84, 101, 203)" fill="none" d="M 0 422.381 C 256 422.381 512 523.619 768 523.619 C 1024 523.619 1280 422.381 1536 422.381 C 1792 422.381 2048 523.619 2304 523.619 C 2560 523.619 2816 422.381 3072 422.381" transform="matrix(1,0,0,1,-139.2637481689453,0)" style="fill:none;stroke:rgb(84, 101, 203);transform:matrix(1, 0, 0, 1, -139.264, 0);;animation:none"></path>
<path stroke-width="2" stroke-opacity="0" stroke="rgb(82, 104, 204)" fill="none" d="M 0 423.163 C 256 423.163 512 522.837 768 522.837 C 1024 522.837 1280 423.163 1536 423.163 C 1792 423.163 2048 522.837 2304 522.837 C 2560 522.837 2816 423.163 3072 423.163" transform="matrix(1,0,0,1,-147.45599365234375,0)" style="fill:none;stroke:rgb(82, 104, 204);transform:matrix(1, 0, 0, 1, -147.456, 0);;animation:none"></path>
<path stroke-width="2" stroke-opacity="0" stroke="rgb(80, 107, 205)" fill="none" d="M 0 424.003 C 256 424.003 512 521.997 768 521.997 C 1024 521.997 1280 424.003 1536 424.003 C 1792 424.003 2048 521.997 2304 521.997 C 2560 521.997 2816 424.003 3072 424.003" transform="matrix(1,0,0,1,-155.6478729248047,0)" style="fill:none;stroke:rgb(80, 107, 205);transform:matrix(1, 0, 0, 1, -155.648, 0);;animation:none"></path>
<path stroke-width="2" stroke-opacity="0" stroke="rgb(78, 109, 206)" fill="none" d="M 0 424.903 C 256 424.903 512 521.097 768 521.097 C 1024 521.097 1280 424.903 1536 424.903 C 1792 424.903 2048 521.097 2304 521.097 C 2560 521.097 2816 424.903 3072 424.903" transform="matrix(1,0,0,1,-163.83973693847656,0)" style="fill:none;stroke:rgb(78, 109, 206);transform:matrix(1, 0, 0, 1, -163.84, 0);;animation:none"></path>
<path stroke-width="2" stroke-opacity="0" stroke="rgb(76, 113, 207)" fill="none" d="M 0 425.863 C 256 425.863 512 520.138 768 520.138 C 1024 520.138 1280 425.863 1536 425.863 C 1792 425.863 2048 520.138 2304 520.138 C 2560 520.138 2816 425.863 3072 425.863" transform="matrix(1,0,0,1,-172.03201293945312,0)" style="fill:none;stroke:rgb(76, 113, 207);transform:matrix(1, 0, 0, 1, -172.032, 0);;animation:none"></path>
<path stroke-width="2" stroke-opacity="0" stroke="rgb(73, 116, 208)" fill="none" d="M 0 426.885 C 256 426.885 512 519.115 768 519.115 C 1024 519.115 1280 426.885 1536 426.885 C 1792 426.885 2048 519.115 2304 519.115 C 2560 519.115 2816 426.885 3072 426.885" transform="matrix(1,0,0,1,-180.223876953125,0)" style="fill:none;stroke:rgb(73, 116, 208);transform:matrix(1, 0, 0, 1, -180.224, 0);;animation:none"></path>
<path stroke-width="2" stroke-opacity="0" stroke="rgb(71, 119, 209)" fill="none" d="M 0 427.97 C 256 427.97 512 518.03 768 518.03 C 1024 518.03 1280 427.97 1536 427.97 C 1792 427.97 2048 518.03 2304 518.03 C 2560 518.03 2816 427.97 3072 427.97" transform="matrix(1,0,0,1,-188.41574096679688,0)" style="fill:none;stroke:rgb(71, 119, 209);transform:matrix(1, 0, 0, 1, -188.416, 0);;animation:none"></path>
<path stroke-width="2" stroke-opacity="0" stroke="rgb(69, 122, 210)" fill="none" d="M 0 429.121 C 256 429.121 512 516.879 768 516.879 C 1024 516.879 1280 429.121 1536 429.121 C 1792 429.121 2048 516.879 2304 516.879 C 2560 516.879 2816 429.121 3072 429.121" transform="matrix(1,0,0,1,-196.60800170898438,0)" style="fill:none;stroke:rgb(69, 122, 210);transform:matrix(1, 0, 0, 1, -196.608, 0);;animation:none"></path>
<path stroke-width="2" stroke-opacity="0" stroke="rgb(66, 126, 211)" fill="none" d="M 0 430.339 C 256 430.339 512 515.661 768 515.661 C 1024 515.661 1280 430.339 1536 430.339 C 1792 430.339 2048 515.661 2304 515.661 C 2560 515.661 2816 430.339 3072 430.339" transform="matrix(1,0,0,1,-204.79986572265625,0)" style="fill:none;stroke:rgb(66, 126, 211);transform:matrix(1, 0, 0, 1, -204.8, 0);;animation:none"></path>
<path stroke-width="2" stroke-opacity="0" stroke="rgb(64, 129, 212)" fill="none" d="M 0 431.623 C 256 431.623 512 514.377 768 514.377 C 1024 514.377 1280 431.623 1536 431.623 C 1792 431.623 2048 514.377 2304 514.377 C 2560 514.377 2816 431.623 3072 431.623" transform="matrix(1,0,0,1,-212.99172973632812,0)" style="fill:none;stroke:rgb(64, 129, 212);transform:matrix(1, 0, 0, 1, -212.992, 0);;animation:none"></path>
<path stroke-width="2" stroke-opacity="0" stroke="rgb(62, 132, 213)" fill="none" d="M 0 432.977 C 256 432.977 512 513.023 768 513.023 C 1024 513.023 1280 432.977 1536 432.977 C 1792 432.977 2048 513.023 2304 513.023 C 2560 513.023 2816 432.977 3072 432.977" transform="matrix(1,0,0,1,-221.18399047851562,0)" style="fill:none;stroke:rgb(62, 132, 213);transform:matrix(1, 0, 0, 1, -221.184, 0);;animation:none"></path>
<path stroke-width="2" stroke-opacity="0" stroke="rgb(60, 135, 214)" fill="none" d="M 0 434.4 C 256 434.4 512 511.6 768 511.6 C 1024 511.6 1280 434.4 1536 434.4 C 1792 434.4 2048 511.6 2304 511.6 C 2560 511.6 2816 434.4 3072 434.4" transform="matrix(1,0,0,1,-229.37588500976562,0)" style="fill:none;stroke:rgb(60, 135, 214);transform:matrix(1, 0, 0, 1, -229.376, 0);;animation:none"></path>
<path stroke-width="2" stroke-opacity="0" stroke="rgb(58, 138, 215)" fill="none" d="M 0 435.894 C 256 435.894 512 510.106 768 510.106 C 1024 510.106 1280 435.894 1536 435.894 C 1792 435.894 2048 510.106 2304 510.106 C 2560 510.106 2816 435.894 3072 435.894" transform="matrix(1,0,0,1,-237.5677490234375,0)" style="fill:none;stroke:rgb(58, 138, 215);transform:matrix(1, 0, 0, 1, -237.568, 0);;animation:none"></path>
<path stroke-width="2" stroke-opacity="0" stroke="rgb(56, 140, 216)" fill="none" d="M 0 437.458 C 256 437.458 512 508.542 768 508.542 C 1024 508.542 1280 437.458 1536 437.458 C 1792 437.458 2048 508.542 2304 508.542 C 2560 508.542 2816 437.458 3072 437.458" transform="matrix(1,0,0,1,-245.75999450683594,0)" style="fill:none;stroke:rgb(56, 140, 216);transform:matrix(1, 0, 0, 1, -245.76, 0);;animation:none"></path>
<path stroke-width="2" stroke-opacity="0" stroke="rgb(54, 143, 217)" fill="none" d="M 0 439.093 C 256 439.093 512 506.907 768 506.907 C 1024 506.907 1280 439.093 1536 439.093 C 1792 439.093 2048 506.907 2304 506.907 C 2560 506.907 2816 439.093 3072 439.093" transform="matrix(1,0,0,1,-253.95187377929688,0)" style="fill:none;stroke:rgb(54, 143, 217);transform:matrix(1, 0, 0, 1, -253.952, 0);;animation:none"></path>
<path stroke-width="2" stroke-opacity="0" stroke="rgb(52, 145, 217)" fill="none" d="M 0 440.799 C 256 440.799 512 505.201 768 505.201 C 1024 505.201 1280 440.799 1536 440.799 C 1792 440.799 2048 505.201 2304 505.201 C 2560 505.201 2816 440.799 3072 440.799" transform="matrix(1,0,0,1,-262.14373779296875,0)" style="fill:none;stroke:rgb(52, 145, 217);transform:matrix(1, 0, 0, 1, -262.144, 0);;animation:none"></path>
<path stroke-width="2" stroke-opacity="0" stroke="rgb(51, 147, 218)" fill="none" d="M 0 442.575 C 256 442.575 512 503.425 768 503.425 C 1024 503.425 1280 442.575 1536 442.575 C 1792 442.575 2048 503.425 2304 503.425 C 2560 503.425 2816 442.575 3072 442.575" transform="matrix(1,0,0,1,-270.33599853515625,0)" style="fill:none;stroke:rgb(51, 147, 218);transform:matrix(1, 0, 0, 1, -270.336, 0);;animation:none"></path>
<path stroke-width="2" stroke-opacity="0" stroke="rgb(49, 149, 219)" fill="none" d="M 0 444.421 C 256 444.421 512 501.579 768 501.579 C 1024 501.579 1280 444.421 1536 444.421 C 1792 444.421 2048 501.579 2304 501.579 C 2560 501.579 2816 444.421 3072 444.421" transform="matrix(1,0,0,1,-278.5278625488281,0)" style="fill:none;stroke:rgb(49, 149, 219);transform:matrix(1, 0, 0, 1, -278.528, 0);;animation:none"></path>
<path stroke-width="2" stroke-opacity="0" stroke="rgb(48, 151, 219)" fill="none" d="M 0 446.335 C 256 446.335 512 499.665 768 499.665 C 1024 499.665 1280 446.335 1536 446.335 C 1792 446.335 2048 499.665 2304 499.665 C 2560 499.665 2816 446.335 3072 446.335" transform="matrix(1,0,0,1,-286.7197570800781,0)" style="fill:none;stroke:rgb(48, 151, 219);transform:matrix(1, 0, 0, 1, -286.72, 0);;animation:none"></path>
<path stroke-width="2" stroke-opacity="0" stroke="rgb(47, 152, 220)" fill="none" d="M 0 448.314 C 256 448.314 512 497.686 768 497.686 C 1024 497.686 1280 448.314 1536 448.314 C 1792 448.314 2048 497.686 2304 497.686 C 2560 497.686 2816 448.314 3072 448.314" transform="matrix(1,0,0,1,-294.9119873046875,0)" style="fill:none;stroke:rgb(47, 152, 220);transform:matrix(1, 0, 0, 1, -294.912, 0);;animation:none"></path>
<path stroke-width="2" stroke-opacity="0" stroke="rgb(46, 153, 220)" fill="none" d="M 0 450.357 C 256 450.357 512 495.643 768 495.643 C 1024 495.643 1280 450.357 1536 450.357 C 1792 450.357 2048 495.643 2304 495.643 C 2560 495.643 2816 450.357 3072 450.357" transform="matrix(1,0,0,1,-303.1038818359375,0)" style="fill:none;stroke:rgb(46, 153, 220);transform:matrix(1, 0, 0, 1, -303.104, 0);;animation:none"></path>
<path stroke-width="2" stroke-opacity="0" stroke="rgb(45, 155, 221)" fill="none" d="M 0 452.461 C 256 452.461 512 493.539 768 493.539 C 1024 493.539 1280 452.461 1536 452.461 C 1792 452.461 2048 493.539 2304 493.539 C 2560 493.539 2816 452.461 3072 452.461" transform="matrix(1,0,0,1,-311.2957458496094,0)" style="fill:none;stroke:rgb(45, 155, 221);transform:matrix(1, 0, 0, 1, -311.296, 0);;animation:none"></path>
<path stroke-width="2" stroke-opacity="0" stroke="rgb(44, 156, 221)" fill="none" d="M 0 454.621 C 256 454.621 512 491.379 768 491.379 C 1024 491.379 1280 454.621 1536 454.621 C 1792 454.621 2048 491.379 2304 491.379 C 2560 491.379 2816 454.621 3072 454.621" transform="matrix(1,0,0,1,-319.4880065917969,0)" style="fill:none;stroke:rgb(44, 156, 221);transform:matrix(1, 0, 0, 1, -319.488, 0);;animation:none"></path>
<path stroke-width="2" stroke-opacity="0" stroke="rgb(44, 156, 221)" fill="none" d="M 0 456.834 C 256 456.834 512 489.166 768 489.166 C 1024 489.166 1280 456.834 1536 456.834 C 1792 456.834 2048 489.166 2304 489.166 C 2560 489.166 2816 456.834 3072 456.834" transform="matrix(1,0,0,1,-327.67987060546875,0)" style="fill:none;stroke:rgb(44, 156, 221);transform:matrix(1, 0, 0, 1, -327.68, 0);;animation:none"></path>
<path stroke-width="2" stroke-opacity="0" stroke="rgb(43, 157, 221)" fill="none" d="M 0 459.094 C 256 459.094 512 486.906 768 486.906 C 1024 486.906 1280 459.094 1536 459.094 C 1792 459.094 2048 486.906 2304 486.906 C 2560 486.906 2816 459.094 3072 459.094" transform="matrix(1,0,0,1,-335.8717346191406,0)" style="fill:none;stroke:rgb(43, 157, 221);transform:matrix(1, 0, 0, 1, -335.872, 0);;animation:none"></path>
<path stroke-width="2" stroke-opacity="0" stroke="rgb(43, 158, 222)" fill="none" d="M 0 461.396 C 256 461.396 512 484.604 768 484.604 C 1024 484.604 1280 461.396 1536 461.396 C 1792 461.396 2048 484.604 2304 484.604 C 2560 484.604 2816 461.396 3072 461.396" transform="matrix(1,0,0,1,-344.06402587890625,0)" style="fill:none;stroke:rgb(43, 158, 222);transform:matrix(1, 0, 0, 1, -344.064, 0);;animation:none"></path>
<path stroke-width="2" stroke-opacity="0" stroke="rgb(43, 158, 222)" fill="none" d="M 0 463.733 C 256 463.733 512 482.267 768 482.267 C 1024 482.267 1280 463.733 1536 463.733 C 1792 463.733 2048 482.267 2304 482.267 C 2560 482.267 2816 463.733 3072 463.733" transform="matrix(1,0,0,1,-352.255859375,0)" style="fill:none;stroke:rgb(43, 158, 222);transform:matrix(1, 0, 0, 1, -352.256, 0);;animation:none"></path>
<path stroke-width="2" stroke-opacity="0" stroke="rgb(42, 159, 222)" fill="none" d="M 0 466.1 C 256 466.1 512 479.9 768 479.9 C 1024 479.9 1280 466.1 1536 466.1 C 1792 466.1 2048 479.9 2304 479.9 C 2560 479.9 2816 466.1 3072 466.1" transform="matrix(1,0,0,1,-360.44775390625,0)" style="fill:none;stroke:rgb(42, 159, 222);transform:matrix(1, 0, 0, 1, -360.448, 0);;animation:none"></path>
<path stroke-width="2" stroke-opacity="0" stroke="rgb(42, 159, 222)" fill="none" d="M 0 468.489 C 256 468.489 512 477.511 768 477.511 C 1024 477.511 1280 468.489 1536 468.489 C 1792 468.489 2048 477.511 2304 477.511 C 2560 477.511 2816 468.489 3072 468.489" transform="matrix(1,0,0,1,-368.6399841308594,0)" style="fill:none;stroke:rgb(42, 159, 222);transform:matrix(1, 0, 0, 1, -368.64, 0);;animation:none"></path>
<path stroke-width="2" stroke-opacity="0.022727272727272728" stroke="rgb(42, 159, 222)" fill="none" d="M 0 470.892 C 256 470.892 512 475.109 768 475.109 C 1024 475.109 1280 470.892 1536 470.892 C 1792 470.892 2048 475.109 2304 475.109 C 2560 475.109 2816 470.892 3072 470.892" transform="matrix(1,0,0,1,-376.8318786621094,0)" style="fill:none;stroke:rgb(42, 159, 222);transform:matrix(1, 0, 0, 1, -376.832, 0);;animation:none"></path>
<path stroke-width="2" stroke-opacity="0.045454545454545456" stroke="rgb(42, 159, 222)" fill="none" d="M 0 473.301 C 256 473.301 512 472.699 768 472.699 C 1024 472.699 1280 473.301 1536 473.301 C 1792 473.301 2048 472.699 2304 472.699 C 2560 472.699 2816 473.301 3072 473.301" transform="matrix(1,0,0,1,-385.02374267578125,0)" style="fill:none;stroke:rgb(42, 159, 222);transform:matrix(1, 0, 0, 1, -385.024, 0);;animation:none"></path>
<path stroke-width="2" stroke-opacity="0.06818181818181818" stroke="rgb(42, 159, 222)" fill="none" d="M 0 475.71 C 256 475.71 512 470.29 768 470.29 C 1024 470.29 1280 475.71 1536 475.71 C 1792 475.71 2048 470.29 2304 470.29 C 2560 470.29 2816 475.71 3072 475.71" transform="matrix(1,0,0,1,-393.21600341796875,0)" style="fill:none;stroke:rgb(42, 159, 222);transform:matrix(1, 0, 0, 1, -393.216, 0);;animation:none"></path>
<path stroke-width="2" stroke-opacity="0.09090909090909091" stroke="rgb(42, 159, 222)" fill="none" d="M 0 478.11 C 256 478.11 512 467.89 768 467.89 C 1024 467.89 1280 478.11 1536 478.11 C 1792 478.11 2048 467.89 2304 467.89 C 2560 467.89 2816 478.11 3072 478.11" transform="matrix(1,0,0,1,-401.40789794921875,0)" style="fill:none;stroke:rgb(42, 159, 222);transform:matrix(1, 0, 0, 1, -401.408, 0);;animation:none"></path>
<path stroke-width="2" stroke-opacity="0.11363636363636363" stroke="rgb(42, 159, 222)" fill="none" d="M 0 480.494 C 256 480.494 512 465.506 768 465.506 C 1024 465.506 1280 480.494 1536 480.494 C 1792 480.494 2048 465.506 2304 465.506 C 2560 465.506 2816 480.494 3072 480.494" transform="matrix(1,0,0,1,-409.5997314453125,0)" style="fill:none;stroke:rgb(42, 159, 222);transform:matrix(1, 0, 0, 1, -409.6, 0);;animation:none"></path>
<path stroke-width="2" stroke-opacity="0.13636363636363635" stroke="rgb(42, 160, 221)" fill="none" d="M 0 482.854 C 256 482.854 512 463.146 768 463.146 C 1024 463.146 1280 482.854 1536 482.854 C 1792 482.854 2048 463.146 2304 463.146 C 2560 463.146 2816 482.854 3072 482.854" transform="matrix(1,0,0,1,-417.7920227050781,0)" style="fill:none;stroke:rgb(42, 160, 221);transform:matrix(1, 0, 0, 1, -417.792, 0);;animation:none"></path>
<path stroke-width="2" stroke-opacity="0.1590909090909091" stroke="rgb(42, 160, 221)" fill="none" d="M 0 485.183 C 256 485.183 512 460.817 768 460.817 C 1024 460.817 1280 485.183 1536 485.183 C 1792 485.183 2048 460.817 2304 460.817 C 2560 460.817 2816 485.183 3072 485.183" transform="matrix(1,0,0,1,-425.98388671875,0)" style="fill:none;stroke:rgb(42, 160, 221);transform:matrix(1, 0, 0, 1, -425.984, 0);;animation:none"></path>
<path stroke-width="2" stroke-opacity="0.18181818181818182" stroke="rgb(42, 161, 220)" fill="none" d="M 0 487.475 C 256 487.475 512 458.525 768 458.525 C 1024 458.525 1280 487.475 1536 487.475 C 1792 487.475 2048 458.525 2304 458.525 C 2560 458.525 2816 487.475 3072 487.475" transform="matrix(1,0,0,1,-434.1757507324219,0)" style="fill:none;stroke:rgb(42, 161, 220);transform:matrix(1, 0, 0, 1, -434.176, 0);;animation:none"></path>
<path stroke-width="2" stroke-opacity="0.20454545454545456" stroke="rgb(42, 161, 220)" fill="none" d="M 0 489.724 C 256 489.724 512 456.276 768 456.276 C 1024 456.276 1280 489.724 1536 489.724 C 1792 489.724 2048 456.276 2304 456.276 C 2560 456.276 2816 489.724 3072 489.724" transform="matrix(1,0,0,1,-442.36798095703125,0)" style="fill:none;stroke:rgb(42, 161, 220);transform:matrix(1, 0, 0, 1, -442.368, 0);;animation:none"></path>
<path stroke-width="2" stroke-opacity="0.22727272727272727" stroke="rgb(42, 162, 219)" fill="none" d="M 0 491.924 C 256 491.924 512 454.076 768 454.076 C 1024 454.076 1280 491.924 1536 491.924 C 1792 491.924 2048 454.076 2304 454.076 C 2560 454.076 2816 491.924 3072 491.924" transform="matrix(1,0,0,1,-450.55987548828125,0)" style="fill:none;stroke:rgb(42, 162, 219);transform:matrix(1, 0, 0, 1, -450.56, 0);;animation:none"></path>
<path stroke-width="2" stroke-opacity="0.25" stroke="rgb(41, 163, 218)" fill="none" d="M 0 494.07 C 256 494.07 512 451.93 768 451.93 C 1024 451.93 1280 494.07 1536 494.07 C 1792 494.07 2048 451.93 2304 451.93 C 2560 451.93 2816 494.07 3072 494.07" transform="matrix(1,0,0,1,-458.75177001953125,0)" style="fill:none;stroke:rgb(41, 163, 218);transform:matrix(1, 0, 0, 1, -458.752, 0);;animation:none"></path>
<path stroke-width="2" stroke-opacity="0.2727272727272727" stroke="rgb(41, 164, 217)" fill="none" d="M 0 496.159 C 256 496.159 512 449.841 768 449.841 C 1024 449.841 1280 496.159 1536 496.159 C 1792 496.159 2048 449.841 2304 449.841 C 2560 449.841 2816 496.159 3072 496.159" transform="matrix(1,0,0,1,-466.9439697265625,0)" style="fill:none;stroke:rgb(41, 164, 217);transform:matrix(1, 0, 0, 1, -466.944, 0);;animation:none"></path>
<path stroke-width="2" stroke-opacity="0.29545454545454547" stroke="rgb(41, 166, 215)" fill="none" d="M 0 498.187 C 256 498.187 512 447.813 768 447.813 C 1024 447.813 1280 498.187 1536 498.187 C 1792 498.187 2048 447.813 2304 447.813 C 2560 447.813 2816 498.187 3072 498.187" transform="matrix(1,0,0,1,-475.1358947753906,0)" style="fill:none;stroke:rgb(41, 166, 215);transform:matrix(1, 0, 0, 1, -475.136, 0);;animation:none"></path>
<path stroke-width="2" stroke-opacity="0.3181818181818182" stroke="rgb(41, 167, 214)" fill="none" d="M 0 500.15 C 256 500.15 512 445.85 768 445.85 C 1024 445.85 1280 500.15 1536 500.15 C 1792 500.15 2048 445.85 2304 445.85 C 2560 445.85 2816 500.15 3072 500.15" transform="matrix(1,0,0,1,-483.3277587890625,0)" style="fill:none;stroke:rgb(41, 167, 214);transform:matrix(1, 0, 0, 1, -483.328, 0);;animation:none"></path>
<path stroke-width="2" stroke-opacity="0.3409090909090909" stroke="rgb(41, 168, 213)" fill="none" d="M 0 502.047 C 256 502.047 512 443.953 768 443.953 C 1024 443.953 1280 502.047 1536 502.047 C 1792 502.047 2048 443.953 2304 443.953 C 2560 443.953 2816 502.047 3072 502.047" transform="matrix(1,0,0,1,-491.5199890136719,0)" style="fill:none;stroke:rgb(41, 168, 213);transform:matrix(1, 0, 0, 1, -491.52, 0);;animation:none"></path>
<path stroke-width="2" stroke-opacity="0.36363636363636365" stroke="rgb(41, 170, 211)" fill="none" d="M 0 503.875 C 256 503.875 512 442.125 768 442.125 C 1024 442.125 1280 503.875 1536 503.875 C 1792 503.875 2048 442.125 2304 442.125 C 2560 442.125 2816 503.875 3072 503.875" transform="matrix(1,0,0,1,-499.71185302734375,0)" style="fill:none;stroke:rgb(41, 170, 211);transform:matrix(1, 0, 0, 1, -499.712, 0);;animation:none"></path>
<path stroke-width="2" stroke-opacity="0.38636363636363635" stroke="rgb(40, 172, 209)" fill="none" d="M 0 505.634 C 256 505.634 512 440.366 768 440.366 C 1024 440.366 1280 505.634 1536 505.634 C 1792 505.634 2048 440.366 2304 440.366 C 2560 440.366 2816 505.634 3072 505.634" transform="matrix(1,0,0,1,-507.90374755859375,0)" style="fill:none;stroke:rgb(40, 172, 209);transform:matrix(1, 0, 0, 1, -507.904, 0);;animation:none"></path>
<path stroke-width="2" stroke-opacity="0.4090909090909091" stroke="rgb(40, 174, 207)" fill="none" d="M 0 507.322 C 256 507.322 512 438.678 768 438.678 C 1024 438.678 1280 507.322 1536 507.322 C 1792 507.322 2048 438.678 2304 438.678 C 2560 438.678 2816 507.322 3072 507.322" transform="matrix(1,0,0,1,-516.0960083007812,0)" style="fill:none;stroke:rgb(40, 174, 207);transform:matrix(1, 0, 0, 1, -516.096, 0);;animation:none"></path>
<path stroke-width="2" stroke-opacity="0.4318181818181818" stroke="rgb(40, 176, 205)" fill="none" d="M 0 508.94 C 256 508.94 512 437.06 768 437.06 C 1024 437.06 1280 508.94 1536 508.94 C 1792 508.94 2048 437.06 2304 437.06 C 2560 437.06 2816 508.94 3072 508.94" transform="matrix(1,0,0,1,-524.287841796875,0)" style="fill:none;stroke:rgb(40, 176, 205);transform:matrix(1, 0, 0, 1, -524.288, 0);;animation:none"></path>
<path stroke-width="2" stroke-opacity="0.45454545454545453" stroke="rgb(39, 179, 202)" fill="none" d="M 0 510.486 C 256 510.486 512 435.514 768 435.514 C 1024 435.514 1280 510.486 1536 510.486 C 1792 510.486 2048 435.514 2304 435.514 C 2560 435.514 2816 510.486 3072 510.486" transform="matrix(1,0,0,1,-532.479736328125,0)" style="fill:none;stroke:rgb(39, 179, 202);transform:matrix(1, 0, 0, 1, -532.48, 0);;animation:none"></path>
<path stroke-width="2" stroke-opacity="0.4772727272727273" stroke="rgb(39, 181, 200)" fill="none" d="M 0 511.962 C 256 511.962 512 434.038 768 434.038 C 1024 434.038 1280 511.962 1536 511.962 C 1792 511.962 2048 434.038 2304 434.038 C 2560 434.038 2816 511.962 3072 511.962" transform="matrix(1,0,0,1,-540.6719970703125,0)" style="fill:none;stroke:rgb(39, 181, 200);transform:matrix(1, 0, 0, 1, -540.672, 0);;animation:none"></path>
<path stroke-width="2" stroke-opacity="0.5" stroke="rgb(39, 184, 197)" fill="none" d="M 0 513.368 C 256 513.368 512 432.632 768 432.632 C 1024 432.632 1280 513.368 1536 513.368 C 1792 513.368 2048 432.632 2304 432.632 C 2560 432.632 2816 513.368 3072 513.368" transform="matrix(1,0,0,1,-548.8638916015625,0)" style="fill:none;stroke:rgb(39, 184, 197);transform:matrix(1, 0, 0, 1, -548.864, 0);;animation:none"></path>
<path stroke-width="2" stroke-opacity="0.5227272727272727" stroke="rgb(38, 187, 194)" fill="none" d="M 0 514.704 C 256 514.704 512 431.296 768 431.296 C 1024 431.296 1280 514.704 1536 514.704 C 1792 514.704 2048 431.296 2304 431.296 C 2560 431.296 2816 514.704 3072 514.704" transform="matrix(1,0,0,1,-557.0557250976562,0)" style="fill:none;stroke:rgb(38, 187, 194);transform:matrix(1, 0, 0, 1, -557.056, 0);;animation:none"></path>
<path stroke-width="2" stroke-opacity="0.5454545454545454" stroke="rgb(38, 190, 191)" fill="none" d="M 0 515.972 C 256 515.972 512 430.028 768 430.028 C 1024 430.028 1280 515.972 1536 515.972 C 1792 515.972 2048 430.028 2304 430.028 C 2560 430.028 2816 515.972 3072 515.972" transform="matrix(1,0,0,1,-565.2479858398438,0)" style="fill:none;stroke:rgb(38, 190, 191);transform:matrix(1, 0, 0, 1, -565.248, 0);;animation:none"></path>
<path stroke-width="2" stroke-opacity="0.5681818181818182" stroke="rgb(38, 193, 188)" fill="none" d="M 0 517.173 C 256 517.173 512 428.827 768 428.827 C 1024 428.827 1280 517.173 1536 517.173 C 1792 517.173 2048 428.827 2304 428.827 C 2560 428.827 2816 517.173 3072 517.173" transform="matrix(1,0,0,1,-573.4398803710938,0)" style="fill:none;stroke:rgb(38, 193, 188);transform:matrix(1, 0, 0, 1, -573.44, 0);;animation:none"></path>
<path stroke-width="2" stroke-opacity="0.5909090909090909" stroke="rgb(37, 196, 185)" fill="none" d="M 0 518.307 C 256 518.307 512 427.693 768 427.693 C 1024 427.693 1280 518.307 1536 518.307 C 1792 518.307 2048 427.693 2304 427.693 C 2560 427.693 2816 518.307 3072 518.307" transform="matrix(1,0,0,1,-581.6317138671875,0)" style="fill:none;stroke:rgb(37, 196, 185);transform:matrix(1, 0, 0, 1, -581.632, 0);;animation:none"></path>
<path stroke-width="2" stroke-opacity="0.6136363636363636" stroke="rgb(37, 198, 183)" fill="none" d="M 0 519.377 C 256 519.377 512 426.623 768 426.623 C 1024 426.623 1280 519.377 1536 519.377 C 1792 519.377 2048 426.623 2304 426.623 C 2560 426.623 2816 519.377 3072 519.377" transform="matrix(1,0,0,1,-589.823974609375,0)" style="fill:none;stroke:rgb(37, 198, 183);transform:matrix(1, 0, 0, 1, -589.824, 0);;animation:none"></path>
<path stroke-width="2" stroke-opacity="0.6363636363636364" stroke="rgb(36, 201, 180)" fill="none" d="M 0 520.383 C 256 520.383 512 425.617 768 425.617 C 1024 425.617 1280 520.383 1536 520.383 C 1792 520.383 2048 425.617 2304 425.617 C 2560 425.617 2816 520.383 3072 520.383" transform="matrix(1,0,0,1,-598.015869140625,0)" style="fill:none;stroke:rgb(36, 201, 180);transform:matrix(1, 0, 0, 1, -598.016, 0);;animation:none"></path>
<path stroke-width="2" stroke-opacity="0.6590909090909091" stroke="rgb(36, 204, 177)" fill="none" d="M 0 521.328 C 256 521.328 512 424.672 768 424.672 C 1024 424.672 1280 521.328 1536 521.328 C 1792 521.328 2048 424.672 2304 424.672 C 2560 424.672 2816 521.328 3072 521.328" transform="matrix(1,0,0,1,-606.207763671875,0)" style="fill:none;stroke:rgb(36, 204, 177);transform:matrix(1, 0, 0, 1, -606.208, 0);;animation:none"></path>
<g></g></g><!-- [ldio] generated by https://loading.io --></svg>